<?xml version="1.0"?>
<!-- Generated by SVGo -->
<svg width="324.327mm" height="152.876mm"
     viewBox="0.000 0.000 324.327 152.876"
     xmlns="http://www.w3.org/2000/svg" 
     xmlns:xlink="http://www.w3.org/1999/xlink">
<polygon points="319.327,147.876 5.001,147.876 5.001,5.000 319.327,5.000" style="fill:none;stroke-width:0.050000mm;stroke:black"/>
<polygon points="298.038,131.350 298.038,145.350 312.038,145.350 312.038,131.350" style="fill:none;stroke-width:0.050000mm;stroke:black"/>
<polygon points="278.988,131.350 278.988,145.350 292.988,145.350 292.988,131.350" style="fill:none;stroke-width:0.050000mm;stroke:black"/>
<polygon points="259.938,131.350 259.938,145.350 273.938,145.350 273.938,131.350" style="fill:none;stroke-width:0.050000mm;stroke:black"/>
<polygon points="128.968,126.587 128.968,131.287 89.344,131.287 89.344,128.056 82.594,128.056 82.594,131.287 81.769,131.287 81.769,134.087 82.594,134.087 82.594,140.357 84.319,140.357 84.319,141.557 87.619,141.557 87.619,140.357 89.344,140.357 89.344,135.887 128.968,135.887 128.968,140.587 142.969,140.587 142.969,135.887 182.594,135.887 182.594,140.357 184.319,140.357 184.319,141.557 187.619,141.557 187.619,140.357 189.344,140.357 189.344,134.087 190.169,134.087 190.169,131.287 189.344,131.287 189.344,128.056 182.594,128.056 182.594,131.287 142.969,131.287 142.969,126.587" style="fill:none;stroke-width:0.050000mm;stroke:black"/>
<polygon points="236.126,126.587 236.126,140.587 250.126,140.587 250.126,126.587" style="fill:none;stroke-width:0.050000mm;stroke:black"/>
<polygon points="217.076,126.587 217.076,140.587 231.076,140.587 231.076,126.587" style="fill:none;stroke-width:0.050000mm;stroke:black"/>
<polygon points="198.026,126.587 198.026,140.587 212.026,140.587 212.026,126.587" style="fill:none;stroke-width:0.050000mm;stroke:black"/>
<polygon points="57.532,126.587 57.532,140.587 71.532,140.587 71.532,126.587" style="fill:none;stroke-width:0.050000mm;stroke:black"/>
<polygon points="33.719,126.587 33.719,140.587 47.719,140.587 47.719,126.587" style="fill:none;stroke-width:0.050000mm;stroke:black"/>
<polygon points="9.907,126.587 9.907,140.587 23.907,140.587 23.907,126.587" style="fill:none;stroke-width:0.050000mm;stroke:black"/>
<polygon points="278.988,112.300 278.988,126.300 292.988,126.300 292.988,112.300" style="fill:none;stroke-width:0.050000mm;stroke:black"/>
<polygon points="19.432,107.537 19.432,112.237 17.907,112.237 17.907,109.007 11.157,109.007 11.157,112.237 10.332,112.237 10.332,115.037 11.157,115.037 11.157,121.307 12.882,121.307 12.882,122.507 16.182,122.507 16.182,121.307 17.907,121.307 17.907,116.837 19.432,116.837 19.432,121.537 33.432,121.537 33.432,116.837 34.957,116.837 34.957,121.307 36.682,121.307 36.682,122.507 39.982,122.507 39.982,121.307 41.707,121.307 41.707,115.037 42.532,115.037 42.532,112.237 41.707,112.237 41.707,109.007 34.957,109.007 34.957,112.237 33.432,112.237 33.432,107.537" style="fill:none;stroke-width:0.050000mm;stroke:black"/>
<polygon points="302.801,107.537 302.801,121.537 316.801,121.537 316.801,107.537" style="fill:none;stroke-width:0.050000mm;stroke:black"/>
<polygon points="248.032,107.537 248.032,121.537 262.032,121.537 262.032,107.537" style="fill:none;stroke-width:0.050000mm;stroke:black"/>
<polygon points="221.838,107.537 221.838,121.537 235.838,121.537 235.838,107.537" style="fill:none;stroke-width:0.050000mm;stroke:black"/>
<polygon points="202.788,107.537 202.788,121.537 216.788,121.537 216.788,107.537" style="fill:none;stroke-width:0.050000mm;stroke:black"/>
<polygon points="183.738,107.537 183.738,121.537 197.738,121.537 197.738,107.537" style="fill:none;stroke-width:0.050000mm;stroke:black"/>
<polygon points="164.688,107.537 164.688,121.537 178.688,121.537 178.688,107.537" style="fill:none;stroke-width:0.050000mm;stroke:black"/>
<polygon points="145.638,107.537 145.638,121.537 159.638,121.537 159.638,107.537" style="fill:none;stroke-width:0.050000mm;stroke:black"/>
<polygon points="126.588,107.537 126.588,121.537 140.588,121.537 140.588,107.537" style="fill:none;stroke-width:0.050000mm;stroke:black"/>
<polygon points="107.538,107.537 107.538,121.537 121.538,121.537 121.538,107.537" style="fill:none;stroke-width:0.050000mm;stroke:black"/>
<polygon points="88.488,107.537 88.488,121.537 102.488,121.537 102.488,107.537" style="fill:none;stroke-width:0.050000mm;stroke:black"/>
<polygon points="69.438,107.537 69.438,121.537 83.438,121.537 83.438,107.537" style="fill:none;stroke-width:0.050000mm;stroke:black"/>
<polygon points="50.388,107.537 50.388,121.537 64.388,121.537 64.388,107.537" style="fill:none;stroke-width:0.050000mm;stroke:black"/>
<polygon points="262.319,88.487 262.319,93.187 260.794,93.187 260.794,89.957 254.044,89.957 254.044,93.187 253.219,93.187 253.219,95.987 254.044,95.987 254.044,102.257 255.769,102.257 255.769,103.457 259.068,103.457 259.068,102.257 260.794,102.257 260.794,97.787 262.319,97.787 262.319,102.487 276.319,102.487 276.319,97.787 277.844,97.787 277.844,102.257 279.569,102.257 279.569,103.457 282.869,103.457 282.869,102.257 284.594,102.257 284.594,95.987 285.419,95.987 285.419,93.187 284.594,93.187 284.594,89.957 277.844,89.957 277.844,93.187 276.319,93.187 276.319,88.487" style="fill:none;stroke-width:0.050000mm;stroke:black"/>
<polygon points="302.801,88.487 302.801,102.487 316.801,102.487 316.801,88.487" style="fill:none;stroke-width:0.050000mm;stroke:black"/>
<polygon points="231.363,88.487 231.363,102.487 245.363,102.487 245.363,88.487" style="fill:none;stroke-width:0.050000mm;stroke:black"/>
<polygon points="212.313,88.487 212.313,102.487 226.313,102.487 226.313,88.487" style="fill:none;stroke-width:0.050000mm;stroke:black"/>
<polygon points="193.263,88.487 193.263,102.487 207.263,102.487 207.263,88.487" style="fill:none;stroke-width:0.050000mm;stroke:black"/>
<polygon points="174.213,88.487 174.213,102.487 188.213,102.487 188.213,88.487" style="fill:none;stroke-width:0.050000mm;stroke:black"/>
<polygon points="155.163,88.487 155.163,102.487 169.163,102.487 169.163,88.487" style="fill:none;stroke-width:0.050000mm;stroke:black"/>
<polygon points="136.113,88.487 136.113,102.487 150.113,102.487 150.113,88.487" style="fill:none;stroke-width:0.050000mm;stroke:black"/>
<polygon points="117.063,88.487 117.063,102.487 131.063,102.487 131.063,88.487" style="fill:none;stroke-width:0.050000mm;stroke:black"/>
<polygon points="98.013,88.487 98.013,102.487 112.013,102.487 112.013,88.487" style="fill:none;stroke-width:0.050000mm;stroke:black"/>
<polygon points="78.963,88.487 78.963,102.487 92.963,102.487 92.963,88.487" style="fill:none;stroke-width:0.050000mm;stroke:black"/>
<polygon points="59.913,88.487 59.913,102.487 73.913,102.487 73.913,88.487" style="fill:none;stroke-width:0.050000mm;stroke:black"/>
<polygon points="40.863,88.487 40.863,102.487 54.863,102.487 54.863,88.487" style="fill:none;stroke-width:0.050000mm;stroke:black"/>
<polygon points="14.669,88.487 14.669,102.487 28.669,102.487 28.669,88.487" style="fill:none;stroke-width:0.050000mm;stroke:black"/>
<polygon points="302.801,69.437 302.801,83.437 316.801,83.437 316.801,69.437" style="fill:none;stroke-width:0.050000mm;stroke:black"/>
<polygon points="269.463,69.437 269.463,83.437 283.463,83.437 283.463,69.437" style="fill:none;stroke-width:0.050000mm;stroke:black"/>
<polygon points="245.651,69.437 245.651,83.437 259.650,83.437 259.650,69.437" style="fill:none;stroke-width:0.050000mm;stroke:black"/>
<polygon points="226.601,69.437 226.601,83.437 240.601,83.437 240.601,69.437" style="fill:none;stroke-width:0.050000mm;stroke:black"/>
<polygon points="207.551,69.437 207.551,83.437 221.551,83.437 221.551,69.437" style="fill:none;stroke-width:0.050000mm;stroke:black"/>
<polygon points="188.501,69.437 188.501,83.437 202.501,83.437 202.501,69.437" style="fill:none;stroke-width:0.050000mm;stroke:black"/>
<polygon points="169.451,69.437 169.451,83.437 183.451,83.437 183.451,69.437" style="fill:none;stroke-width:0.050000mm;stroke:black"/>
<polygon points="150.401,69.437 150.401,83.437 164.401,83.437 164.401,69.437" style="fill:none;stroke-width:0.050000mm;stroke:black"/>
<polygon points="131.351,69.437 131.351,83.437 145.351,83.437 145.351,69.437" style="fill:none;stroke-width:0.050000mm;stroke:black"/>
<polygon points="112.301,69.437 112.301,83.437 126.301,83.437 126.301,69.437" style="fill:none;stroke-width:0.050000mm;stroke:black"/>
<polygon points="93.251,69.437 93.251,83.437 107.251,83.437 107.251,69.437" style="fill:none;stroke-width:0.050000mm;stroke:black"/>
<polygon points="74.201,69.437 74.201,83.437 88.201,83.437 88.201,69.437" style="fill:none;stroke-width:0.050000mm;stroke:black"/>
<polygon points="55.151,69.437 55.151,83.437 69.151,83.437 69.151,69.437" style="fill:none;stroke-width:0.050000mm;stroke:black"/>
<polygon points="36.101,69.437 36.101,83.437 50.101,83.437 50.101,69.437" style="fill:none;stroke-width:0.050000mm;stroke:black"/>
<polygon points="12.288,69.437 12.288,83.437 26.288,83.437 26.288,69.437" style="fill:none;stroke-width:0.050000mm;stroke:black"/>
<polygon points="264.701,50.387 264.701,55.087 263.176,55.087 263.176,51.857 256.426,51.857 256.426,55.087 255.601,55.087 255.601,57.887 256.426,57.887 256.426,64.157 258.150,64.157 258.150,65.357 261.451,65.357 261.451,64.157 263.176,64.157 263.176,59.687 264.701,59.687 264.701,64.387 278.701,64.387 278.701,59.687 280.226,59.687 280.226,64.157 281.951,64.157 281.951,65.357 285.251,65.357 285.251,64.157 286.976,64.157 286.976,57.887 287.801,57.887 287.801,55.087 286.976,55.087 286.976,51.857 280.226,51.857 280.226,55.087 278.701,55.087 278.701,50.387" style="fill:none;stroke-width:0.050000mm;stroke:black"/>
<polygon points="302.801,50.387 302.801,64.387 316.801,64.387 316.801,50.387" style="fill:none;stroke-width:0.050000mm;stroke:black"/>
<polygon points="236.126,50.387 236.126,64.387 250.126,64.387 250.126,50.387" style="fill:none;stroke-width:0.050000mm;stroke:black"/>
<polygon points="217.076,50.387 217.076,64.387 231.076,64.387 231.076,50.387" style="fill:none;stroke-width:0.050000mm;stroke:black"/>
<polygon points="198.026,50.387 198.026,64.387 212.026,64.387 212.026,50.387" style="fill:none;stroke-width:0.050000mm;stroke:black"/>
<polygon points="178.976,50.387 178.976,64.387 192.976,64.387 192.976,50.387" style="fill:none;stroke-width:0.050000mm;stroke:black"/>
<polygon points="159.926,50.387 159.926,64.387 173.926,64.387 173.926,50.387" style="fill:none;stroke-width:0.050000mm;stroke:black"/>
<polygon points="140.876,50.387 140.876,64.387 154.876,64.387 154.876,50.387" style="fill:none;stroke-width:0.050000mm;stroke:black"/>
<polygon points="121.825,50.387 121.825,64.387 135.826,64.387 135.826,50.387" style="fill:none;stroke-width:0.050000mm;stroke:black"/>
<polygon points="102.775,50.387 102.775,64.387 116.775,64.387 116.775,50.387" style="fill:none;stroke-width:0.050000mm;stroke:black"/>
<polygon points="83.726,50.387 83.726,64.387 97.726,64.387 97.726,50.387" style="fill:none;stroke-width:0.050000mm;stroke:black"/>
<polygon points="64.676,50.387 64.676,64.387 78.676,64.387 78.676,50.387" style="fill:none;stroke-width:0.050000mm;stroke:black"/>
<polygon points="45.626,50.387 45.626,64.387 59.626,64.387 59.626,50.387" style="fill:none;stroke-width:0.050000mm;stroke:black"/>
<polygon points="26.576,50.387 26.576,64.387 40.576,64.387 40.576,50.387" style="fill:none;stroke-width:0.050000mm;stroke:black"/>
<polygon points="7.526,50.387 7.526,64.387 21.526,64.387 21.526,50.387" style="fill:none;stroke-width:0.050000mm;stroke:black"/>
<polygon points="274.226,26.575 274.226,40.575 288.226,40.575 288.226,26.575" style="fill:none;stroke-width:0.050000mm;stroke:black"/>
<polygon points="255.176,26.575 255.176,40.575 269.176,40.575 269.176,26.575" style="fill:none;stroke-width:0.050000mm;stroke:black"/>
<polygon points="236.126,26.575 236.126,40.575 250.126,40.575 250.126,26.575" style="fill:none;stroke-width:0.050000mm;stroke:black"/>
<polygon points="217.076,26.575 217.076,40.575 231.076,40.575 231.076,26.575" style="fill:none;stroke-width:0.050000mm;stroke:black"/>
<polygon points="198.026,26.575 198.026,40.575 212.026,40.575 212.026,26.575" style="fill:none;stroke-width:0.050000mm;stroke:black"/>
<polygon points="174.213,26.575 174.213,40.575 188.213,40.575 188.213,26.575" style="fill:none;stroke-width:0.050000mm;stroke:black"/>
<polygon points="155.163,26.575 155.163,40.575 169.163,40.575 169.163,26.575" style="fill:none;stroke-width:0.050000mm;stroke:black"/>
<polygon points="136.113,26.575 136.113,40.575 150.113,40.575 150.113,26.575" style="fill:none;stroke-width:0.050000mm;stroke:black"/>
<polygon points="117.063,26.575 117.063,40.575 131.063,40.575 131.063,26.575" style="fill:none;stroke-width:0.050000mm;stroke:black"/>
<polygon points="93.251,26.575 93.251,40.575 107.251,40.575 107.251,26.575" style="fill:none;stroke-width:0.050000mm;stroke:black"/>
<polygon points="74.201,26.575 74.201,40.575 88.201,40.575 88.201,26.575" style="fill:none;stroke-width:0.050000mm;stroke:black"/>
<polygon points="55.151,26.575 55.151,40.575 69.151,40.575 69.151,26.575" style="fill:none;stroke-width:0.050000mm;stroke:black"/>
<polygon points="36.101,26.575 36.101,40.575 50.101,40.575 50.101,26.575" style="fill:none;stroke-width:0.050000mm;stroke:black"/>
<polygon points="7.526,26.575 7.526,40.575 21.526,40.575 21.526,26.575" style="fill:none;stroke-width:0.050000mm;stroke:black"/>
</svg>
