<?xml version="1.0"?>
<!-- Generated by SVGo -->
<svg width="357.665mm" height="129.065mm"
     viewBox="0.000 0.000 357.665 129.065"
     xmlns="http://www.w3.org/2000/svg" 
     xmlns:xlink="http://www.w3.org/1999/xlink">
<polygon points="352.664,124.064 5.001,124.064 5.001,5.000 352.664,5.000" style="fill:none;stroke-width:0.050000mm;stroke:black"/>
<polygon points="128.968,107.538 128.968,108.538 128.169,108.538 128.169,111.638 128.968,111.638 128.968,112.238 89.344,112.238 89.344,109.008 87.619,109.008 87.619,108.088 84.319,108.088 84.319,109.008 82.594,109.008 82.594,112.238 81.769,112.238 81.769,115.038 82.594,115.038 82.594,121.308 84.319,121.308 84.319,122.288 87.619,122.288 87.619,121.308 89.344,121.308 89.344,116.838 128.968,116.838 128.968,117.438 128.169,117.438 128.169,120.538 128.968,120.538 128.968,121.538 142.969,121.538 142.969,120.538 143.769,120.538 143.769,117.438 142.969,117.438 142.969,116.838 182.594,116.838 182.594,121.308 184.319,121.308 184.319,122.288 187.619,122.288 187.619,121.308 189.344,121.308 189.344,115.038 190.169,115.038 190.169,112.238 189.344,112.238 189.344,109.008 187.619,109.008 187.619,108.088 184.319,108.088 184.319,109.008 182.594,109.008 182.594,112.238 142.969,112.238 142.969,111.638 143.769,111.638 143.769,108.538 142.969,108.538 142.969,107.538" style="fill:none;stroke-width:0.050000mm;stroke:black"/>
<polygon points="336.138,107.538 336.138,108.538 335.338,108.538 335.338,111.638 336.138,111.638 336.138,117.438 335.338,117.438 335.338,120.538 336.138,120.538 336.138,121.538 350.138,121.538 350.138,120.538 350.938,120.538 350.938,117.438 350.138,117.438 350.138,111.638 350.938,111.638 350.938,108.538 350.138,108.538 350.138,107.538" style="fill:none;stroke-width:0.050000mm;stroke:black"/>
<polygon points="317.088,107.538 317.088,108.538 316.288,108.538 316.288,111.638 317.088,111.638 317.088,117.438 316.288,117.438 316.288,120.538 317.088,120.538 317.088,121.538 331.088,121.538 331.088,120.538 331.888,120.538 331.888,117.438 331.088,117.438 331.088,111.638 331.888,111.638 331.888,108.538 331.088,108.538 331.088,107.538" style="fill:none;stroke-width:0.050000mm;stroke:black"/>
<polygon points="298.038,107.538 298.038,108.538 297.238,108.538 297.238,111.638 298.038,111.638 298.038,117.438 297.238,117.438 297.238,120.538 298.038,120.538 298.038,121.538 312.038,121.538 312.038,120.538 312.838,120.538 312.838,117.438 312.038,117.438 312.038,111.638 312.838,111.638 312.838,108.538 312.038,108.538 312.038,107.538" style="fill:none;stroke-width:0.050000mm;stroke:black"/>
<polygon points="271.844,107.538 271.844,108.538 271.044,108.538 271.044,111.638 271.844,111.638 271.844,117.438 271.044,117.438 271.044,120.538 271.844,120.538 271.844,121.538 285.844,121.538 285.844,120.538 286.644,120.538 286.644,117.438 285.844,117.438 285.844,111.638 286.644,111.638 286.644,108.538 285.844,108.538 285.844,107.538" style="fill:none;stroke-width:0.050000mm;stroke:black"/>
<polygon points="248.032,107.538 248.032,108.538 247.232,108.538 247.232,111.638 248.032,111.638 248.032,117.438 247.232,117.438 247.232,120.538 248.032,120.538 248.032,121.538 262.032,121.538 262.032,120.538 262.832,120.538 262.832,117.438 262.032,117.438 262.032,111.638 262.832,111.638 262.832,108.538 262.032,108.538 262.032,107.538" style="fill:none;stroke-width:0.050000mm;stroke:black"/>
<polygon points="224.219,107.538 224.219,108.538 223.419,108.538 223.419,111.638 224.219,111.638 224.219,117.438 223.419,117.438 223.419,120.538 224.219,120.538 224.219,121.538 238.219,121.538 238.219,120.538 239.019,120.538 239.019,117.438 238.219,117.438 238.219,111.638 239.019,111.638 239.019,108.538 238.219,108.538 238.219,107.538" style="fill:none;stroke-width:0.050000mm;stroke:black"/>
<polygon points="200.407,107.538 200.407,108.538 199.607,108.538 199.607,111.638 200.407,111.638 200.407,117.438 199.607,117.438 199.607,120.538 200.407,120.538 200.407,121.538 214.407,121.538 214.407,120.538 215.207,120.538 215.207,117.438 214.407,117.438 214.407,111.638 215.207,111.638 215.207,108.538 214.407,108.538 214.407,107.538" style="fill:none;stroke-width:0.050000mm;stroke:black"/>
<polygon points="57.532,107.538 57.532,108.538 56.732,108.538 56.732,111.638 57.532,111.638 57.532,117.438 56.732,117.438 56.732,120.538 57.532,120.538 57.532,121.538 71.532,121.538 71.532,120.538 72.332,120.538 72.332,117.438 71.532,117.438 71.532,111.638 72.332,111.638 72.332,108.538 71.532,108.538 71.532,107.538" style="fill:none;stroke-width:0.050000mm;stroke:black"/>
<polygon points="33.719,107.538 33.719,108.538 32.919,108.538 32.919,111.638 33.719,111.638 33.719,117.438 32.919,117.438 32.919,120.538 33.719,120.538 33.719,121.538 47.719,121.538 47.719,120.538 48.519,120.538 48.519,117.438 47.719,117.438 47.719,111.638 48.519,111.638 48.519,108.538 47.719,108.538 47.719,107.538" style="fill:none;stroke-width:0.050000mm;stroke:black"/>
<polygon points="9.907,107.538 9.907,108.538 9.107,108.538 9.107,111.638 9.907,111.638 9.907,117.438 9.107,117.438 9.107,120.538 9.907,120.538 9.907,121.538 23.907,121.538 23.907,120.538 24.707,120.538 24.707,117.438 23.907,117.438 23.907,111.638 24.707,111.638 24.707,108.538 23.907,108.538 23.907,107.538" style="fill:none;stroke-width:0.050000mm;stroke:black"/>
<polygon points="257.556,88.488 257.556,89.488 256.756,89.488 256.756,92.588 257.556,92.588 257.556,93.188 256.032,93.188 256.032,89.958 254.307,89.958 254.307,89.038 251.007,89.038 251.007,89.958 249.282,89.958 249.282,93.188 248.457,93.188 248.457,95.988 249.282,95.988 249.282,102.258 251.007,102.258 251.007,103.238 254.307,103.238 254.307,102.258 256.032,102.258 256.032,97.788 257.556,97.788 257.556,98.388 256.756,98.388 256.756,101.488 257.556,101.488 257.556,102.488 271.557,102.488 271.557,101.488 272.357,101.488 272.357,98.388 271.557,98.388 271.557,97.788 273.082,97.788 273.082,102.258 274.807,102.258 274.807,103.238 278.107,103.238 278.107,102.258 279.832,102.258 279.832,95.988 280.657,95.988 280.657,93.188 279.832,93.188 279.832,89.958 278.107,89.958 278.107,89.038 274.807,89.038 274.807,89.958 273.082,89.958 273.082,93.188 271.557,93.188 271.557,92.588 272.357,92.588 272.357,89.488 271.557,89.488 271.557,88.488" style="fill:none;stroke-width:0.050000mm;stroke:black"/>
<polygon points="19.432,88.488 19.432,89.488 18.632,89.488 18.632,92.588 19.432,92.588 19.432,93.188 17.907,93.188 17.907,89.958 16.182,89.958 16.182,89.038 12.882,89.038 12.882,89.958 11.157,89.958 11.157,93.188 10.332,93.188 10.332,95.988 11.157,95.988 11.157,102.258 12.882,102.258 12.882,103.238 16.182,103.238 16.182,102.258 17.907,102.258 17.907,97.788 19.432,97.788 19.432,98.388 18.632,98.388 18.632,101.488 19.432,101.488 19.432,102.488 33.432,102.488 33.432,101.488 34.232,101.488 34.232,98.388 33.432,98.388 33.432,97.788 34.957,97.788 34.957,102.258 36.682,102.258 36.682,103.238 39.982,103.238 39.982,102.258 41.707,102.258 41.707,95.988 42.532,95.988 42.532,93.188 41.707,93.188 41.707,89.958 39.982,89.958 39.982,89.038 36.682,89.038 36.682,89.958 34.957,89.958 34.957,93.188 33.432,93.188 33.432,92.588 34.232,92.588 34.232,89.488 33.432,89.488 33.432,88.488" style="fill:none;stroke-width:0.050000mm;stroke:black"/>
<polygon points="317.088,88.488 317.088,89.488 316.288,89.488 316.288,92.588 317.088,92.588 317.088,98.388 316.288,98.388 316.288,101.488 317.088,101.488 317.088,102.488 331.088,102.488 331.088,101.488 331.888,101.488 331.888,98.388 331.088,98.388 331.088,92.588 331.888,92.588 331.888,89.488 331.088,89.488 331.088,88.488" style="fill:none;stroke-width:0.050000mm;stroke:black"/>
<polygon points="221.838,88.488 221.838,89.488 221.038,89.488 221.038,92.588 221.838,92.588 221.838,98.388 221.038,98.388 221.038,101.488 221.838,101.488 221.838,102.488 235.838,102.488 235.838,101.488 236.638,101.488 236.638,98.388 235.838,98.388 235.838,92.588 236.638,92.588 236.638,89.488 235.838,89.488 235.838,88.488" style="fill:none;stroke-width:0.050000mm;stroke:black"/>
<polygon points="202.788,88.488 202.788,89.488 201.988,89.488 201.988,92.588 202.788,92.588 202.788,98.388 201.988,98.388 201.988,101.488 202.788,101.488 202.788,102.488 216.788,102.488 216.788,101.488 217.588,101.488 217.588,98.388 216.788,98.388 216.788,92.588 217.588,92.588 217.588,89.488 216.788,89.488 216.788,88.488" style="fill:none;stroke-width:0.050000mm;stroke:black"/>
<polygon points="183.738,88.488 183.738,89.488 182.938,89.488 182.938,92.588 183.738,92.588 183.738,98.388 182.938,98.388 182.938,101.488 183.738,101.488 183.738,102.488 197.738,102.488 197.738,101.488 198.538,101.488 198.538,98.388 197.738,98.388 197.738,92.588 198.538,92.588 198.538,89.488 197.738,89.488 197.738,88.488" style="fill:none;stroke-width:0.050000mm;stroke:black"/>
<polygon points="164.688,88.488 164.688,89.488 163.888,89.488 163.888,92.588 164.688,92.588 164.688,98.388 163.888,98.388 163.888,101.488 164.688,101.488 164.688,102.488 178.688,102.488 178.688,101.488 179.488,101.488 179.488,98.388 178.688,98.388 178.688,92.588 179.488,92.588 179.488,89.488 178.688,89.488 178.688,88.488" style="fill:none;stroke-width:0.050000mm;stroke:black"/>
<polygon points="145.638,88.488 145.638,89.488 144.838,89.488 144.838,92.588 145.638,92.588 145.638,98.388 144.838,98.388 144.838,101.488 145.638,101.488 145.638,102.488 159.638,102.488 159.638,101.488 160.438,101.488 160.438,98.388 159.638,98.388 159.638,92.588 160.438,92.588 160.438,89.488 159.638,89.488 159.638,88.488" style="fill:none;stroke-width:0.050000mm;stroke:black"/>
<polygon points="126.588,88.488 126.588,89.488 125.788,89.488 125.788,92.588 126.588,92.588 126.588,98.388 125.788,98.388 125.788,101.488 126.588,101.488 126.588,102.488 140.588,102.488 140.588,101.488 141.388,101.488 141.388,98.388 140.588,98.388 140.588,92.588 141.388,92.588 141.388,89.488 140.588,89.488 140.588,88.488" style="fill:none;stroke-width:0.050000mm;stroke:black"/>
<polygon points="107.538,88.488 107.538,89.488 106.738,89.488 106.738,92.588 107.538,92.588 107.538,98.388 106.738,98.388 106.738,101.488 107.538,101.488 107.538,102.488 121.538,102.488 121.538,101.488 122.338,101.488 122.338,98.388 121.538,98.388 121.538,92.588 122.338,92.588 122.338,89.488 121.538,89.488 121.538,88.488" style="fill:none;stroke-width:0.050000mm;stroke:black"/>
<polygon points="88.488,88.488 88.488,89.488 87.688,89.488 87.688,92.588 88.488,92.588 88.488,98.388 87.688,98.388 87.688,101.488 88.488,101.488 88.488,102.488 102.488,102.488 102.488,101.488 103.288,101.488 103.288,98.388 102.488,98.388 102.488,92.588 103.288,92.588 103.288,89.488 102.488,89.488 102.488,88.488" style="fill:none;stroke-width:0.050000mm;stroke:black"/>
<polygon points="69.438,88.488 69.438,89.488 68.638,89.488 68.638,92.588 69.438,92.588 69.438,98.388 68.638,98.388 68.638,101.488 69.438,101.488 69.438,102.488 83.438,102.488 83.438,101.488 84.238,101.488 84.238,98.388 83.438,98.388 83.438,92.588 84.238,92.588 84.238,89.488 83.438,89.488 83.438,88.488" style="fill:none;stroke-width:0.050000mm;stroke:black"/>
<polygon points="50.388,88.488 50.388,89.488 49.588,89.488 49.588,92.588 50.388,92.588 50.388,98.388 49.588,98.388 49.588,101.488 50.388,101.488 50.388,102.488 64.388,102.488 64.388,101.488 65.188,101.488 65.188,98.388 64.388,98.388 64.388,92.588 65.188,92.588 65.188,89.488 64.388,89.488 64.388,88.488" style="fill:none;stroke-width:0.050000mm;stroke:black"/>
<polygon points="262.319,69.438 262.319,70.438 261.518,70.438 261.518,73.538 262.319,73.538 262.319,74.138 260.794,74.138 260.794,70.908 259.068,70.908 259.068,69.988 255.769,69.988 255.769,70.908 254.044,70.908 254.044,74.138 253.219,74.138 253.219,76.938 254.044,76.938 254.044,83.208 255.769,83.208 255.769,84.188 259.068,84.188 259.068,83.208 260.794,83.208 260.794,78.738 262.319,78.738 262.319,79.338 261.518,79.338 261.518,82.438 262.319,82.438 262.319,83.438 276.319,83.438 276.319,82.438 277.119,82.438 277.119,79.338 276.319,79.338 276.319,78.738 277.844,78.738 277.844,83.208 279.569,83.208 279.569,84.188 282.869,84.188 282.869,83.208 284.594,83.208 284.594,76.938 285.419,76.938 285.419,74.138 284.594,74.138 284.594,70.908 282.869,70.908 282.869,69.988 279.569,69.988 279.569,70.908 277.844,70.908 277.844,74.138 276.319,74.138 276.319,73.538 277.119,73.538 277.119,70.438 276.319,70.438 276.319,69.438" style="fill:none;stroke-width:0.050000mm;stroke:black"/>
<polygon points="231.363,69.438 231.363,70.438 230.563,70.438 230.563,73.538 231.363,73.538 231.363,79.338 230.563,79.338 230.563,82.438 231.363,82.438 231.363,83.438 245.363,83.438 245.363,82.438 246.163,82.438 246.163,79.338 245.363,79.338 245.363,73.538 246.163,73.538 246.163,70.438 245.363,70.438 245.363,69.438" style="fill:none;stroke-width:0.050000mm;stroke:black"/>
<polygon points="212.313,69.438 212.313,70.438 211.513,70.438 211.513,73.538 212.313,73.538 212.313,79.338 211.513,79.338 211.513,82.438 212.313,82.438 212.313,83.438 226.313,83.438 226.313,82.438 227.113,82.438 227.113,79.338 226.313,79.338 226.313,73.538 227.113,73.538 227.113,70.438 226.313,70.438 226.313,69.438" style="fill:none;stroke-width:0.050000mm;stroke:black"/>
<polygon points="193.263,69.438 193.263,70.438 192.463,70.438 192.463,73.538 193.263,73.538 193.263,79.338 192.463,79.338 192.463,82.438 193.263,82.438 193.263,83.438 207.263,83.438 207.263,82.438 208.063,82.438 208.063,79.338 207.263,79.338 207.263,73.538 208.063,73.538 208.063,70.438 207.263,70.438 207.263,69.438" style="fill:none;stroke-width:0.050000mm;stroke:black"/>
<polygon points="174.213,69.438 174.213,70.438 173.413,70.438 173.413,73.538 174.213,73.538 174.213,79.338 173.413,79.338 173.413,82.438 174.213,82.438 174.213,83.438 188.213,83.438 188.213,82.438 189.013,82.438 189.013,79.338 188.213,79.338 188.213,73.538 189.013,73.538 189.013,70.438 188.213,70.438 188.213,69.438" style="fill:none;stroke-width:0.050000mm;stroke:black"/>
<polygon points="155.163,69.438 155.163,70.438 154.363,70.438 154.363,73.538 155.163,73.538 155.163,79.338 154.363,79.338 154.363,82.438 155.163,82.438 155.163,83.438 169.163,83.438 169.163,82.438 169.963,82.438 169.963,79.338 169.163,79.338 169.163,73.538 169.963,73.538 169.963,70.438 169.163,70.438 169.163,69.438" style="fill:none;stroke-width:0.050000mm;stroke:black"/>
<polygon points="136.113,69.438 136.113,70.438 135.313,70.438 135.313,73.538 136.113,73.538 136.113,79.338 135.313,79.338 135.313,82.438 136.113,82.438 136.113,83.438 150.113,83.438 150.113,82.438 150.913,82.438 150.913,79.338 150.113,79.338 150.113,73.538 150.913,73.538 150.913,70.438 150.113,70.438 150.113,69.438" style="fill:none;stroke-width:0.050000mm;stroke:black"/>
<polygon points="117.063,69.438 117.063,70.438 116.263,70.438 116.263,73.538 117.063,73.538 117.063,79.338 116.263,79.338 116.263,82.438 117.063,82.438 117.063,83.438 131.063,83.438 131.063,82.438 131.863,82.438 131.863,79.338 131.063,79.338 131.063,73.538 131.863,73.538 131.863,70.438 131.063,70.438 131.063,69.438" style="fill:none;stroke-width:0.050000mm;stroke:black"/>
<polygon points="98.013,69.438 98.013,70.438 97.213,70.438 97.213,73.538 98.013,73.538 98.013,79.338 97.213,79.338 97.213,82.438 98.013,82.438 98.013,83.438 112.013,83.438 112.013,82.438 112.813,82.438 112.813,79.338 112.013,79.338 112.013,73.538 112.813,73.538 112.813,70.438 112.013,70.438 112.013,69.438" style="fill:none;stroke-width:0.050000mm;stroke:black"/>
<polygon points="78.963,69.438 78.963,70.438 78.163,70.438 78.163,73.538 78.963,73.538 78.963,79.338 78.163,79.338 78.163,82.438 78.963,82.438 78.963,83.438 92.963,83.438 92.963,82.438 93.763,82.438 93.763,79.338 92.963,79.338 92.963,73.538 93.763,73.538 93.763,70.438 92.963,70.438 92.963,69.438" style="fill:none;stroke-width:0.050000mm;stroke:black"/>
<polygon points="59.913,69.438 59.913,70.438 59.113,70.438 59.113,73.538 59.913,73.538 59.913,79.338 59.113,79.338 59.113,82.438 59.913,82.438 59.913,83.438 73.913,83.438 73.913,82.438 74.713,82.438 74.713,79.338 73.913,79.338 73.913,73.538 74.713,73.538 74.713,70.438 73.913,70.438 73.913,69.438" style="fill:none;stroke-width:0.050000mm;stroke:black"/>
<polygon points="40.863,69.438 40.863,70.438 40.063,70.438 40.063,73.538 40.863,73.538 40.863,79.338 40.063,79.338 40.063,82.438 40.863,82.438 40.863,83.438 54.863,83.438 54.863,82.438 55.663,82.438 55.663,79.338 54.863,79.338 54.863,73.538 55.663,73.538 55.663,70.438 54.863,70.438 54.863,69.438" style="fill:none;stroke-width:0.050000mm;stroke:black"/>
<polygon points="14.669,69.438 14.669,70.438 13.869,70.438 13.869,73.538 14.669,73.538 14.669,79.338 13.869,79.338 13.869,82.438 14.669,82.438 14.669,83.438 28.669,83.438 28.669,82.438 29.469,82.438 29.469,79.338 28.669,79.338 28.669,73.538 29.469,73.538 29.469,70.438 28.669,70.438 28.669,69.438" style="fill:none;stroke-width:0.050000mm;stroke:black"/>
<polygon points="336.138,50.388 336.138,51.388 335.338,51.388 335.338,54.488 336.138,54.488 336.138,60.288 335.338,60.288 335.338,63.388 336.138,63.388 336.138,64.388 350.138,64.388 350.138,63.388 350.938,63.388 350.938,60.288 350.138,60.288 350.138,54.488 350.938,54.488 350.938,51.388 350.138,51.388 350.138,50.388" style="fill:none;stroke-width:0.050000mm;stroke:black"/>
<polygon points="317.088,50.388 317.088,51.388 316.288,51.388 316.288,54.488 317.088,54.488 317.088,60.288 316.288,60.288 316.288,63.388 317.088,63.388 317.088,64.388 331.088,64.388 331.088,63.388 331.888,63.388 331.888,60.288 331.088,60.288 331.088,54.488 331.888,54.488 331.888,51.388 331.088,51.388 331.088,50.388" style="fill:none;stroke-width:0.050000mm;stroke:black"/>
<polygon points="298.038,50.388 298.038,51.388 297.238,51.388 297.238,54.488 298.038,54.488 298.038,60.288 297.238,60.288 297.238,63.388 298.038,63.388 298.038,64.388 312.038,64.388 312.038,63.388 312.838,63.388 312.838,60.288 312.038,60.288 312.038,54.488 312.838,54.488 312.838,51.388 312.038,51.388 312.038,50.388" style="fill:none;stroke-width:0.050000mm;stroke:black"/>
<polygon points="269.463,50.388 269.463,51.388 268.663,51.388 268.663,54.488 269.463,54.488 269.463,60.288 268.663,60.288 268.663,63.388 269.463,63.388 269.463,64.388 283.463,64.388 283.463,63.388 284.263,63.388 284.263,60.288 283.463,60.288 283.463,54.488 284.263,54.488 284.263,51.388 283.463,51.388 283.463,50.388" style="fill:none;stroke-width:0.050000mm;stroke:black"/>
<polygon points="245.651,50.388 245.651,51.388 244.851,51.388 244.851,54.488 245.651,54.488 245.651,60.288 244.851,60.288 244.851,63.388 245.651,63.388 245.651,64.388 259.650,64.388 259.650,63.388 260.451,63.388 260.451,60.288 259.650,60.288 259.650,54.488 260.451,54.488 260.451,51.388 259.650,51.388 259.650,50.388" style="fill:none;stroke-width:0.050000mm;stroke:black"/>
<polygon points="226.601,50.388 226.601,51.388 225.801,51.388 225.801,54.488 226.601,54.488 226.601,60.288 225.801,60.288 225.801,63.388 226.601,63.388 226.601,64.388 240.601,64.388 240.601,63.388 241.401,63.388 241.401,60.288 240.601,60.288 240.601,54.488 241.401,54.488 241.401,51.388 240.601,51.388 240.601,50.388" style="fill:none;stroke-width:0.050000mm;stroke:black"/>
<polygon points="207.551,50.388 207.551,51.388 206.751,51.388 206.751,54.488 207.551,54.488 207.551,60.288 206.751,60.288 206.751,63.388 207.551,63.388 207.551,64.388 221.551,64.388 221.551,63.388 222.351,63.388 222.351,60.288 221.551,60.288 221.551,54.488 222.351,54.488 222.351,51.388 221.551,51.388 221.551,50.388" style="fill:none;stroke-width:0.050000mm;stroke:black"/>
<polygon points="188.501,50.388 188.501,51.388 187.701,51.388 187.701,54.488 188.501,54.488 188.501,60.288 187.701,60.288 187.701,63.388 188.501,63.388 188.501,64.388 202.501,64.388 202.501,63.388 203.301,63.388 203.301,60.288 202.501,60.288 202.501,54.488 203.301,54.488 203.301,51.388 202.501,51.388 202.501,50.388" style="fill:none;stroke-width:0.050000mm;stroke:black"/>
<polygon points="169.451,50.388 169.451,51.388 168.651,51.388 168.651,54.488 169.451,54.488 169.451,60.288 168.651,60.288 168.651,63.388 169.451,63.388 169.451,64.388 183.451,64.388 183.451,63.388 184.251,63.388 184.251,60.288 183.451,60.288 183.451,54.488 184.251,54.488 184.251,51.388 183.451,51.388 183.451,50.388" style="fill:none;stroke-width:0.050000mm;stroke:black"/>
<polygon points="150.401,50.388 150.401,51.388 149.601,51.388 149.601,54.488 150.401,54.488 150.401,60.288 149.601,60.288 149.601,63.388 150.401,63.388 150.401,64.388 164.401,64.388 164.401,63.388 165.201,63.388 165.201,60.288 164.401,60.288 164.401,54.488 165.201,54.488 165.201,51.388 164.401,51.388 164.401,50.388" style="fill:none;stroke-width:0.050000mm;stroke:black"/>
<polygon points="131.351,50.388 131.351,51.388 130.550,51.388 130.550,54.488 131.351,54.488 131.351,60.288 130.550,60.288 130.550,63.388 131.351,63.388 131.351,64.388 145.351,64.388 145.351,63.388 146.151,63.388 146.151,60.288 145.351,60.288 145.351,54.488 146.151,54.488 146.151,51.388 145.351,51.388 145.351,50.388" style="fill:none;stroke-width:0.050000mm;stroke:black"/>
<polygon points="112.301,50.388 112.301,51.388 111.501,51.388 111.501,54.488 112.301,54.488 112.301,60.288 111.501,60.288 111.501,63.388 112.301,63.388 112.301,64.388 126.301,64.388 126.301,63.388 127.101,63.388 127.101,60.288 126.301,60.288 126.301,54.488 127.101,54.488 127.101,51.388 126.301,51.388 126.301,50.388" style="fill:none;stroke-width:0.050000mm;stroke:black"/>
<polygon points="93.251,50.388 93.251,51.388 92.451,51.388 92.451,54.488 93.251,54.488 93.251,60.288 92.451,60.288 92.451,63.388 93.251,63.388 93.251,64.388 107.251,64.388 107.251,63.388 108.051,63.388 108.051,60.288 107.251,60.288 107.251,54.488 108.051,54.488 108.051,51.388 107.251,51.388 107.251,50.388" style="fill:none;stroke-width:0.050000mm;stroke:black"/>
<polygon points="74.201,50.388 74.201,51.388 73.401,51.388 73.401,54.488 74.201,54.488 74.201,60.288 73.401,60.288 73.401,63.388 74.201,63.388 74.201,64.388 88.201,64.388 88.201,63.388 89.001,63.388 89.001,60.288 88.201,60.288 88.201,54.488 89.001,54.488 89.001,51.388 88.201,51.388 88.201,50.388" style="fill:none;stroke-width:0.050000mm;stroke:black"/>
<polygon points="55.151,50.388 55.151,51.388 54.351,51.388 54.351,54.488 55.151,54.488 55.151,60.288 54.351,60.288 54.351,63.388 55.151,63.388 55.151,64.388 69.151,64.388 69.151,63.388 69.951,63.388 69.951,60.288 69.151,60.288 69.151,54.488 69.951,54.488 69.951,51.388 69.151,51.388 69.151,50.388" style="fill:none;stroke-width:0.050000mm;stroke:black"/>
<polygon points="36.101,50.388 36.101,51.388 35.301,51.388 35.301,54.488 36.101,54.488 36.101,60.288 35.301,60.288 35.301,63.388 36.101,63.388 36.101,64.388 50.101,64.388 50.101,63.388 50.901,63.388 50.901,60.288 50.101,60.288 50.101,54.488 50.901,54.488 50.901,51.388 50.101,51.388 50.101,50.388" style="fill:none;stroke-width:0.050000mm;stroke:black"/>
<polygon points="12.288,50.388 12.288,51.388 11.488,51.388 11.488,54.488 12.288,54.488 12.288,60.288 11.488,60.288 11.488,63.388 12.288,63.388 12.288,64.388 26.288,64.388 26.288,63.388 27.088,63.388 27.088,60.288 26.288,60.288 26.288,54.488 27.088,54.488 27.088,51.388 26.288,51.388 26.288,50.388" style="fill:none;stroke-width:0.050000mm;stroke:black"/>
<polygon points="264.701,31.338 264.701,32.338 263.901,32.338 263.901,35.438 264.701,35.438 264.701,36.038 263.176,36.038 263.176,32.808 261.451,32.808 261.451,31.888 258.150,31.888 258.150,32.808 256.426,32.808 256.426,36.038 255.601,36.038 255.601,38.838 256.426,38.838 256.426,45.108 258.150,45.108 258.150,46.088 261.451,46.088 261.451,45.108 263.176,45.108 263.176,40.638 264.701,40.638 264.701,41.238 263.901,41.238 263.901,44.338 264.701,44.338 264.701,45.338 278.701,45.338 278.701,44.338 279.501,44.338 279.501,41.238 278.701,41.238 278.701,40.638 280.226,40.638 280.226,45.108 281.951,45.108 281.951,46.088 285.251,46.088 285.251,45.108 286.976,45.108 286.976,38.838 287.801,38.838 287.801,36.038 286.976,36.038 286.976,32.808 285.251,32.808 285.251,31.888 281.951,31.888 281.951,32.808 280.226,32.808 280.226,36.038 278.701,36.038 278.701,35.438 279.501,35.438 279.501,32.338 278.701,32.338 278.701,31.338" style="fill:none;stroke-width:0.050000mm;stroke:black"/>
<polygon points="336.138,31.338 336.138,32.338 335.338,32.338 335.338,35.438 336.138,35.438 336.138,41.238 335.338,41.238 335.338,44.338 336.138,44.338 336.138,45.338 350.138,45.338 350.138,44.338 350.938,44.338 350.938,41.238 350.138,41.238 350.138,35.438 350.938,35.438 350.938,32.338 350.138,32.338 350.138,31.338" style="fill:none;stroke-width:0.050000mm;stroke:black"/>
<polygon points="317.088,31.338 317.088,32.338 316.288,32.338 316.288,35.438 317.088,35.438 317.088,41.238 316.288,41.238 316.288,44.338 317.088,44.338 317.088,45.338 331.088,45.338 331.088,44.338 331.888,44.338 331.888,41.238 331.088,41.238 331.088,35.438 331.888,35.438 331.888,32.338 331.088,32.338 331.088,31.338" style="fill:none;stroke-width:0.050000mm;stroke:black"/>
<polygon points="298.038,31.338 298.038,32.338 297.238,32.338 297.238,35.438 298.038,35.438 298.038,41.238 297.238,41.238 297.238,44.338 298.038,44.338 298.038,45.338 312.038,45.338 312.038,44.338 312.838,44.338 312.838,41.238 312.038,41.238 312.038,35.438 312.838,35.438 312.838,32.338 312.038,32.338 312.038,31.338" style="fill:none;stroke-width:0.050000mm;stroke:black"/>
<polygon points="236.126,31.338 236.126,32.338 235.326,32.338 235.326,35.438 236.126,35.438 236.126,41.238 235.326,41.238 235.326,44.338 236.126,44.338 236.126,45.338 250.126,45.338 250.126,44.338 250.926,44.338 250.926,41.238 250.126,41.238 250.126,35.438 250.926,35.438 250.926,32.338 250.126,32.338 250.126,31.338" style="fill:none;stroke-width:0.050000mm;stroke:black"/>
<polygon points="217.076,31.338 217.076,32.338 216.276,32.338 216.276,35.438 217.076,35.438 217.076,41.238 216.276,41.238 216.276,44.338 217.076,44.338 217.076,45.338 231.076,45.338 231.076,44.338 231.876,44.338 231.876,41.238 231.076,41.238 231.076,35.438 231.876,35.438 231.876,32.338 231.076,32.338 231.076,31.338" style="fill:none;stroke-width:0.050000mm;stroke:black"/>
<polygon points="198.026,31.338 198.026,32.338 197.226,32.338 197.226,35.438 198.026,35.438 198.026,41.238 197.226,41.238 197.226,44.338 198.026,44.338 198.026,45.338 212.026,45.338 212.026,44.338 212.826,44.338 212.826,41.238 212.026,41.238 212.026,35.438 212.826,35.438 212.826,32.338 212.026,32.338 212.026,31.338" style="fill:none;stroke-width:0.050000mm;stroke:black"/>
<polygon points="178.976,31.338 178.976,32.338 178.176,32.338 178.176,35.438 178.976,35.438 178.976,41.238 178.176,41.238 178.176,44.338 178.976,44.338 178.976,45.338 192.976,45.338 192.976,44.338 193.776,44.338 193.776,41.238 192.976,41.238 192.976,35.438 193.776,35.438 193.776,32.338 192.976,32.338 192.976,31.338" style="fill:none;stroke-width:0.050000mm;stroke:black"/>
<polygon points="159.926,31.338 159.926,32.338 159.126,32.338 159.126,35.438 159.926,35.438 159.926,41.238 159.126,41.238 159.126,44.338 159.926,44.338 159.926,45.338 173.926,45.338 173.926,44.338 174.726,44.338 174.726,41.238 173.926,41.238 173.926,35.438 174.726,35.438 174.726,32.338 173.926,32.338 173.926,31.338" style="fill:none;stroke-width:0.050000mm;stroke:black"/>
<polygon points="140.876,31.338 140.876,32.338 140.076,32.338 140.076,35.438 140.876,35.438 140.876,41.238 140.076,41.238 140.076,44.338 140.876,44.338 140.876,45.338 154.876,45.338 154.876,44.338 155.676,44.338 155.676,41.238 154.876,41.238 154.876,35.438 155.676,35.438 155.676,32.338 154.876,32.338 154.876,31.338" style="fill:none;stroke-width:0.050000mm;stroke:black"/>
<polygon points="121.825,31.338 121.825,32.338 121.025,32.338 121.025,35.438 121.825,35.438 121.825,41.238 121.025,41.238 121.025,44.338 121.825,44.338 121.825,45.338 135.826,45.338 135.826,44.338 136.626,44.338 136.626,41.238 135.826,41.238 135.826,35.438 136.626,35.438 136.626,32.338 135.826,32.338 135.826,31.338" style="fill:none;stroke-width:0.050000mm;stroke:black"/>
<polygon points="102.775,31.338 102.775,32.338 101.976,32.338 101.976,35.438 102.775,35.438 102.775,41.238 101.976,41.238 101.976,44.338 102.775,44.338 102.775,45.338 116.775,45.338 116.775,44.338 117.575,44.338 117.575,41.238 116.775,41.238 116.775,35.438 117.575,35.438 117.575,32.338 116.775,32.338 116.775,31.338" style="fill:none;stroke-width:0.050000mm;stroke:black"/>
<polygon points="83.726,31.338 83.726,32.338 82.926,32.338 82.926,35.438 83.726,35.438 83.726,41.238 82.926,41.238 82.926,44.338 83.726,44.338 83.726,45.338 97.726,45.338 97.726,44.338 98.525,44.338 98.525,41.238 97.726,41.238 97.726,35.438 98.525,35.438 98.525,32.338 97.726,32.338 97.726,31.338" style="fill:none;stroke-width:0.050000mm;stroke:black"/>
<polygon points="64.676,31.338 64.676,32.338 63.876,32.338 63.876,35.438 64.676,35.438 64.676,41.238 63.876,41.238 63.876,44.338 64.676,44.338 64.676,45.338 78.676,45.338 78.676,44.338 79.476,44.338 79.476,41.238 78.676,41.238 78.676,35.438 79.476,35.438 79.476,32.338 78.676,32.338 78.676,31.338" style="fill:none;stroke-width:0.050000mm;stroke:black"/>
<polygon points="45.626,31.338 45.626,32.338 44.826,32.338 44.826,35.438 45.626,35.438 45.626,41.238 44.826,41.238 44.826,44.338 45.626,44.338 45.626,45.338 59.626,45.338 59.626,44.338 60.426,44.338 60.426,41.238 59.626,41.238 59.626,35.438 60.426,35.438 60.426,32.338 59.626,32.338 59.626,31.338" style="fill:none;stroke-width:0.050000mm;stroke:black"/>
<polygon points="26.576,31.338 26.576,32.338 25.776,32.338 25.776,35.438 26.576,35.438 26.576,41.238 25.776,41.238 25.776,44.338 26.576,44.338 26.576,45.338 40.576,45.338 40.576,44.338 41.376,44.338 41.376,41.238 40.576,41.238 40.576,35.438 41.376,35.438 41.376,32.338 40.576,32.338 40.576,31.338" style="fill:none;stroke-width:0.050000mm;stroke:black"/>
<polygon points="7.526,31.338 7.526,32.338 6.726,32.338 6.726,35.438 7.526,35.438 7.526,41.238 6.726,41.238 6.726,44.338 7.526,44.338 7.526,45.338 21.526,45.338 21.526,44.338 22.326,44.338 22.326,41.238 21.526,41.238 21.526,35.438 22.326,35.438 22.326,32.338 21.526,32.338 21.526,31.338" style="fill:none;stroke-width:0.050000mm;stroke:black"/>
<polygon points="336.138,7.526 336.138,8.526 335.338,8.526 335.338,11.626 336.138,11.626 336.138,17.426 335.338,17.426 335.338,20.526 336.138,20.526 336.138,21.526 350.138,21.526 350.138,20.526 350.938,20.526 350.938,17.426 350.138,17.426 350.138,11.626 350.938,11.626 350.938,8.526 350.138,8.526 350.138,7.526" style="fill:none;stroke-width:0.050000mm;stroke:black"/>
<polygon points="317.088,7.526 317.088,8.526 316.288,8.526 316.288,11.626 317.088,11.626 317.088,17.426 316.288,17.426 316.288,20.526 317.088,20.526 317.088,21.526 331.088,21.526 331.088,20.526 331.888,20.526 331.888,17.426 331.088,17.426 331.088,11.626 331.888,11.626 331.888,8.526 331.088,8.526 331.088,7.526" style="fill:none;stroke-width:0.050000mm;stroke:black"/>
<polygon points="298.038,7.526 298.038,8.526 297.238,8.526 297.238,11.626 298.038,11.626 298.038,17.426 297.238,17.426 297.238,20.526 298.038,20.526 298.038,21.526 312.038,21.526 312.038,20.526 312.838,20.526 312.838,17.426 312.038,17.426 312.038,11.626 312.838,11.626 312.838,8.526 312.038,8.526 312.038,7.526" style="fill:none;stroke-width:0.050000mm;stroke:black"/>
<polygon points="274.226,7.526 274.226,8.526 273.426,8.526 273.426,11.626 274.226,11.626 274.226,17.426 273.426,17.426 273.426,20.526 274.226,20.526 274.226,21.526 288.226,21.526 288.226,20.526 289.026,20.526 289.026,17.426 288.226,17.426 288.226,11.626 289.026,11.626 289.026,8.526 288.226,8.526 288.226,7.526" style="fill:none;stroke-width:0.050000mm;stroke:black"/>
<polygon points="255.176,7.526 255.176,8.526 254.376,8.526 254.376,11.626 255.176,11.626 255.176,17.426 254.376,17.426 254.376,20.526 255.176,20.526 255.176,21.526 269.176,21.526 269.176,20.526 269.976,20.526 269.976,17.426 269.176,17.426 269.176,11.626 269.976,11.626 269.976,8.526 269.176,8.526 269.176,7.526" style="fill:none;stroke-width:0.050000mm;stroke:black"/>
<polygon points="236.126,7.526 236.126,8.526 235.326,8.526 235.326,11.626 236.126,11.626 236.126,17.426 235.326,17.426 235.326,20.526 236.126,20.526 236.126,21.526 250.126,21.526 250.126,20.526 250.926,20.526 250.926,17.426 250.126,17.426 250.126,11.626 250.926,11.626 250.926,8.526 250.126,8.526 250.126,7.526" style="fill:none;stroke-width:0.050000mm;stroke:black"/>
<polygon points="217.076,7.526 217.076,8.526 216.276,8.526 216.276,11.626 217.076,11.626 217.076,17.426 216.276,17.426 216.276,20.526 217.076,20.526 217.076,21.526 231.076,21.526 231.076,20.526 231.876,20.526 231.876,17.426 231.076,17.426 231.076,11.626 231.876,11.626 231.876,8.526 231.076,8.526 231.076,7.526" style="fill:none;stroke-width:0.050000mm;stroke:black"/>
<polygon points="188.501,7.526 188.501,8.526 187.701,8.526 187.701,11.626 188.501,11.626 188.501,17.426 187.701,17.426 187.701,20.526 188.501,20.526 188.501,21.526 202.501,21.526 202.501,20.526 203.301,20.526 203.301,17.426 202.501,17.426 202.501,11.626 203.301,11.626 203.301,8.526 202.501,8.526 202.501,7.526" style="fill:none;stroke-width:0.050000mm;stroke:black"/>
<polygon points="169.451,7.526 169.451,8.526 168.651,8.526 168.651,11.626 169.451,11.626 169.451,17.426 168.651,17.426 168.651,20.526 169.451,20.526 169.451,21.526 183.451,21.526 183.451,20.526 184.251,20.526 184.251,17.426 183.451,17.426 183.451,11.626 184.251,11.626 184.251,8.526 183.451,8.526 183.451,7.526" style="fill:none;stroke-width:0.050000mm;stroke:black"/>
<polygon points="150.401,7.526 150.401,8.526 149.601,8.526 149.601,11.626 150.401,11.626 150.401,17.426 149.601,17.426 149.601,20.526 150.401,20.526 150.401,21.526 164.401,21.526 164.401,20.526 165.201,20.526 165.201,17.426 164.401,17.426 164.401,11.626 165.201,11.626 165.201,8.526 164.401,8.526 164.401,7.526" style="fill:none;stroke-width:0.050000mm;stroke:black"/>
<polygon points="131.351,7.526 131.351,8.526 130.550,8.526 130.550,11.626 131.351,11.626 131.351,17.426 130.550,17.426 130.550,20.526 131.351,20.526 131.351,21.526 145.351,21.526 145.351,20.526 146.151,20.526 146.151,17.426 145.351,17.426 145.351,11.626 146.151,11.626 146.151,8.526 145.351,8.526 145.351,7.526" style="fill:none;stroke-width:0.050000mm;stroke:black"/>
<polygon points="102.775,7.526 102.775,8.526 101.976,8.526 101.976,11.626 102.775,11.626 102.775,17.426 101.976,17.426 101.976,20.526 102.775,20.526 102.775,21.526 116.775,21.526 116.775,20.526 117.575,20.526 117.575,17.426 116.775,17.426 116.775,11.626 117.575,11.626 117.575,8.526 116.775,8.526 116.775,7.526" style="fill:none;stroke-width:0.050000mm;stroke:black"/>
<polygon points="83.726,7.526 83.726,8.526 82.926,8.526 82.926,11.626 83.726,11.626 83.726,17.426 82.926,17.426 82.926,20.526 83.726,20.526 83.726,21.526 97.726,21.526 97.726,20.526 98.525,20.526 98.525,17.426 97.726,17.426 97.726,11.626 98.525,11.626 98.525,8.526 97.726,8.526 97.726,7.526" style="fill:none;stroke-width:0.050000mm;stroke:black"/>
<polygon points="64.676,7.526 64.676,8.526 63.876,8.526 63.876,11.626 64.676,11.626 64.676,17.426 63.876,17.426 63.876,20.526 64.676,20.526 64.676,21.526 78.676,21.526 78.676,20.526 79.476,20.526 79.476,17.426 78.676,17.426 78.676,11.626 79.476,11.626 79.476,8.526 78.676,8.526 78.676,7.526" style="fill:none;stroke-width:0.050000mm;stroke:black"/>
<polygon points="45.626,7.526 45.626,8.526 44.826,8.526 44.826,11.626 45.626,11.626 45.626,17.426 44.826,17.426 44.826,20.526 45.626,20.526 45.626,21.526 59.626,21.526 59.626,20.526 60.426,20.526 60.426,17.426 59.626,17.426 59.626,11.626 60.426,11.626 60.426,8.526 59.626,8.526 59.626,7.526" style="fill:none;stroke-width:0.050000mm;stroke:black"/>
<polygon points="7.526,7.526 7.526,8.526 6.726,8.526 6.726,11.626 7.526,11.626 7.526,17.426 6.726,17.426 6.726,20.526 7.526,20.526 7.526,21.526 21.526,21.526 21.526,20.526 22.326,20.526 22.326,17.426 21.526,17.426 21.526,11.626 22.326,11.626 22.326,8.526 21.526,8.526 21.526,7.526" style="fill:none;stroke-width:0.050000mm;stroke:black"/>
</svg>
